 <svg  version="1.0" xmlns="http://www.w3.org/2000/svg"  width="300.000000pt" height="310.000000pt" viewBox="0 0 300.000000 310.000000"  preserveAspectRatio="xMidYMid meet">  <g transform="translate(0.000000,310.000000) scale(0.050000,-0.050000)" fill="#ffffff" stroke="none"> <path d="M0 6180 c0 -13 1013 -20 3000 -20 1987 0 3000 7 3000 20 0 13 -1013 20 -3000 20 -1987 0 -3000 -7 -3000 -20z"/> <path d="M480 6000 c0 -12 22 -54 49 -95 156 -240 188 -682 112 -1575 -91 -1083 -78 -1220 144 -1590 357 -596 1181 -1223 2048 -1558 l103 -40 107 41 c162 61 580 248 690 308 262 144 326 182 437 257 908 615 1197 1235 1092 2346 -82 866 -30 1540 140 1818 44 73 48 108 13 108 -35 -1 -128 -227 -175 -425 -85 -360 -92 -986 -19 -1623 137 -1190 -483 -2027 -1961 -2647 -345 -145 -305 -142 -531 -46 -721 305 -1496 880 -1810 1343 -280 412 -318 618 -251 1359 109 1199 85 1691 -92 1944 l-39 55 2307 2 c1268 1 2329 9 2356 18 28 9 -1023 17 -2335 18 -1611 1 -2385 -5 -2385 -18z"/> <path d="M120 5967 c0 -16 21 -27 52 -27 32 0 48 9 43 25 -11 34 -95 36 -95 2z"/> <path d="M5600 5970 c0 -19 19 -30 50 -30 31 0 50 11 50 30 0 19 -19 30 -50 30 -31 0 -50 -11 -50 -30z"/> <path d="M5833 5970 c-9 -23 3 -30 50 -30 53 0 58 4 37 30 -14 17 -36 30 -50 30 -14 0 -31 -13 -37 -30z"/> <path d="M0 5870 c0 -40 10 -50 50 -50 40 0 50 10 50 50 0 40 -10 50 -50 50 -40 0 -50 -10 -50 -50z"/> <path d="M223 5876 c5 -33 22 -48 62 -52 86 -10 82 -124 -5 -124 -53 0 -60 7 -60 60 0 51 -8 60 -50 60 -42 0 -50 -9 -50 -60 0 -51 8 -60 50 -60 40 0 50 -10 50 -50 0 -42 9 -50 60 -50 51 0 60 8 60 50 0 40 10 50 50 50 71 0 72 94 1 111 -30 8 -51 30 -55 56 -4 30 -22 45 -63 49 -49 6 -55 1 -50 -40z"/> <path d="M5500 5870 c0 -43 8 -52 45 -46 30 4 45 20 45 46 0 26 -15 42 -45 46 -37 6 -45 -3 -45 -46z"/> <path d="M5720 5870 c0 -40 10 -50 50 -50 40 0 50 10 50 50 0 40 -10 50 -50 50 -40 0 -50 -10 -50 -50z"/> <path d="M5940 5870 c0 -31 11 -50 30 -50 19 0 30 19 30 50 0 31 -11 50 -30 50 -19 0 -30 -19 -30 -50z"/> <path d="M794 5808 c-7 -7 10 -45 37 -85 144 -210 182 -681 120 -1463 -72 -899 -67 -1041 44 -1310 214 -520 982 -1190 1753 -1528 255 -112 253 -112 780 151 1182 589 1630 1307 1503 2407 -100 864 -77 1395 76 1730 l51 110 -2176 0 c-1196 0 -2181 -6 -2188 -12z m4275 -62 c-52 -120 -94 -270 -106 -375 l-13 -121 -1960 0 -1959 0 -35 167 c-19 91 -57 206 -84 254 l-49 88 334 6 c1595 26 3887 14 3872 -19z m-2100 -605 c6 -10 17 -390 24 -845 12 -805 18 -876 77 -876 14 0 36 -14 50 -30 14 -17 31 -26 36 -20 6 6 -6 23 -26 38 -34 24 -38 63 -43 384 -3 197 -6 367 -7 378 0 11 1 92 3 180 2 88 2 187 0 220 -5 79 9 208 24 223 6 7 5 23 -3 35 -50 77 -18 212 54 229 84 19 1583 17 1614 -2 12 -8 22 -92 24 -194 1 -99 7 -215 13 -256 14 -93 32 -384 31 -505 -1 -57 6 -80 16 -64 11 16 18 -44 20 -150 1 -97 5 -246 9 -332 4 -86 1 -161 -7 -165 -8 -5 -12 -32 -9 -61 3 -29 -2 -85 -12 -125 -10 -40 -23 -95 -29 -123 -12 -60 -130 -305 -155 -323 -10 -7 -11 -24 -2 -38 10 -16 7 -20 -8 -11 -14 9 -23 1 -23 -19 0 -45 -79 -152 -102 -138 -10 7 -17 5 -14 -5 8 -29 -45 -108 -65 -95 -10 6 -19 3 -19 -7 0 -10 -25 -16 -55 -12 -30 4 -39 2 -20 -4 19 -6 35 -19 35 -29 0 -27 -47 -23 -80 6 -24 21 -24 20 -2 -10 15 -19 46 -36 69 -37 33 -2 35 -5 9 -12 -19 -5 -40 -26 -46 -46 -7 -23 -24 -33 -41 -27 -16 6 -29 2 -29 -9 0 -10 -20 -25 -45 -33 -28 -8 -35 -18 -20 -24 26 -11 -97 -107 -136 -107 -10 0 -19 -8 -19 -19 0 -10 -18 -24 -40 -31 -22 -7 -35 -21 -29 -31 6 -11 -7 -19 -30 -19 -22 0 -39 -11 -36 -25 3 -15 -13 -23 -39 -20 -34 3 -41 -4 -32 -29 9 -22 5 -28 -11 -18 -13 8 -28 1 -35 -17 -7 -17 -25 -31 -41 -31 -15 0 -61 -21 -102 -47 -41 -26 -95 -54 -120 -62 -25 -7 -41 -21 -35 -30 8 -14 -66 -44 -101 -41 -6 1 -22 -11 -37 -25 -15 -15 -66 -40 -114 -55 -49 -16 -92 -33 -98 -40 -18 -20 -189 -57 -200 -43 -10 13 -19 15 -119 20 -44 2 -57 11 -48 33 8 22 2 27 -22 18 -19 -8 -50 3 -74 25 -23 20 -45 34 -50 30 -15 -12 -127 41 -127 59 0 10 -14 18 -32 18 -20 0 -28 11 -21 29 7 18 1 25 -15 19 -14 -5 -37 4 -51 21 -14 17 -35 25 -46 18 -12 -7 -15 -4 -8 8 12 20 435 37 678 29 72 -3 101 22 50 43 -16 6 -12 10 8 11 19 1 37 -8 41 -20 10 -30 202 -40 221 -11 11 17 20 16 32 -4 24 -37 80 -22 150 41 33 30 68 49 77 44 9 -6 15 -4 13 6 -3 9 20 65 49 125 30 60 54 124 54 143 0 20 10 61 23 92 12 31 25 74 27 95 2 21 13 42 23 45 11 4 16 34 11 66 -5 38 0 60 15 60 15 0 19 15 11 40 -7 23 -4 40 9 40 11 0 21 10 21 21 0 12 -7 17 -16 12 -8 -6 -15 7 -15 28 0 36 2 36 50 5 l51 -32 -39 44 c-21 24 -39 73 -40 109 -2 63 -83 173 -128 173 -10 0 -28 13 -41 28 -30 36 -109 51 -150 28 -19 -11 -49 -9 -77 6 -37 19 -41 18 -20 -4 36 -38 31 -68 -7 -37 -26 22 -34 22 -47 0 -16 -26 -139 39 -158 83 -16 38 -44 12 -32 -29 8 -25 7 -38 -2 -30 -19 18 -91 -85 -77 -109 6 -9 118 -16 249 -16 146 0 239 -8 239 -20 0 -11 26 -20 59 -20 87 0 87 2 -47 -450 l-124 -420 -209 -13 c-202 -12 -1239 -22 -1239 -12 0 3 71 149 157 325 149 305 183 388 212 517 l13 57 184 -7 184 -7 -7 80 c-4 44 -16 96 -27 117 -30 57 -2 64 43 11 22 -26 40 -73 40 -103 1 -30 10 -55 21 -55 31 0 23 92 -10 120 -37 31 -28 46 17 28 18 -7 33 -25 33 -40 0 -15 9 -28 20 -28 25 0 25 13 1 95 -14 52 -12 65 10 65 21 0 29 -26 30 -95 l1 -95 30 57 c38 69 57 59 29 -16 -26 -67 -26 -91 -1 -91 11 0 20 17 20 37 0 20 23 61 50 91 28 30 50 60 50 68 1 54 39 71 79 35 22 -20 41 -29 41 -18 0 17 -102 87 -128 87 -7 0 -12 -13 -12 -30 0 -16 -14 -30 -31 -30 -17 0 -26 9 -19 20 7 11 -2 20 -20 20 -31 0 -90 45 -90 69 0 6 14 11 31 11 17 0 26 8 20 18 -6 11 2 32 18 48 25 25 25 34 3 52 -27 23 -76 -11 -423 -287 -55 -45 -132 -103 -169 -131 -38 -27 -105 -82 -149 -121 -45 -38 -126 -106 -181 -150 -55 -43 -118 -94 -140 -113 -106 -90 -401 -316 -413 -316 -8 0 -20 29 -28 65 -8 36 -31 83 -51 105 -75 82 -179 216 -212 272 -19 32 -42 58 -50 58 -9 0 -16 14 -16 30 0 17 -10 30 -21 30 -12 0 -16 8 -10 19 6 10 4 23 -6 29 -10 6 -29 52 -43 101 -14 50 -32 91 -40 91 -7 0 -15 28 -16 63 -1 35 -11 69 -22 76 -12 7 -17 36 -12 64 8 43 23 547 28 943 1 64 10 111 20 105 37 -23 47 91 31 356 -10 169 -7 202 23 235 32 36 32 40 -2 78 -20 22 -27 40 -15 40 12 0 26 -11 32 -25 6 -15 10 -11 11 10 1 19 4 35 7 36 3 1 216 6 475 12 289 7 480 20 497 33 17 14 31 15 40 2 13 -20 140 -35 283 -34 297 1 407 8 382 25 -22 13 -14 20 30 26 32 5 64 10 72 12 7 2 19 -5 25 -16z m-803 -2566 c-20 -36 -38 -69 -41 -73 -2 -4 -20 5 -40 20 -30 24 -32 24 -13 -2 25 -34 30 -103 6 -89 -12 8 -42 -50 -47 -91 -6 -43 -59 -137 -74 -128 -10 6 -17 4 -15 -6 13 -76 -45 -88 -122 -24 -27 23 -36 36 -20 28 17 -7 11 4 -13 25 -30 27 -38 47 -25 67 9 15 18 21 18 13 0 -8 17 1 37 20 20 19 33 42 29 50 -12 21 98 114 134 114 23 0 21 -7 -9 -30 -21 -16 -30 -29 -19 -29 30 0 66 42 57 67 -4 13 14 39 42 59 27 20 49 26 49 14 0 -12 20 -3 44 19 60 56 64 52 22 -24z"/> <path d="M1100 5522 c0 -160 38 -238 42 -87 l2 75 30 -74 c33 -79 94 -96 140 -37 21 27 27 26 53 -9 48 -65 57 -24 28 133 -35 189 -77 201 -101 27 -24 -172 -54 -186 -54 -24 0 137 -32 186 -45 69 l-7 -65 -20 69 c-38 130 -68 97 -68 -77z"/> <path d="M1464 5656 c-37 -37 -29 -112 16 -151 22 -18 40 -47 40 -63 0 -23 -5 -25 -24 -6 -35 35 -56 29 -56 -17 0 -50 50 -72 90 -39 44 36 37 120 -15 176 l-45 49 45 -14 c31 -10 45 -5 45 14 0 27 -38 75 -60 75 -7 0 -23 -11 -36 -24z"/> <path d="M1631 5655 c-51 -170 -51 -330 0 -261 25 35 28 34 56 -4 59 -79 59 -27 2 245 -11 49 -46 61 -58 20z"/> <path d="M1971 5658 c-5 -15 -22 -82 -37 -148 -27 -118 -28 -119 -51 -64 -16 40 -17 68 -2 96 34 63 5 118 -62 118 l-59 0 0 -150 c0 -87 8 -150 20 -150 11 0 20 29 20 64 0 68 30 58 43 -14 9 -50 92 -66 109 -21 16 40 60 40 76 0 31 -82 43 5 17 125 -31 143 -57 192 -74 144z"/> <path d="M2349 5655 c-56 -146 -64 -350 -10 -260 20 33 23 33 51 -4 53 -69 70 -11 37 129 -32 141 -58 186 -78 135z"/> <path d="M2565 5667 c-44 -18 -30 -139 20 -172 25 -17 38 -37 30 -46 -8 -8 -27 -4 -43 9 -37 31 -52 4 -30 -54 13 -33 31 -45 63 -40 68 9 76 149 11 201 l-46 38 45 -13 c50 -14 62 25 21 66 -26 26 -32 27 -71 11z"/> <path d="M2873 5647 c-58 -202 -58 -336 -1 -258 28 38 28 38 56 0 46 -62 57 -22 31 114 -27 140 -67 208 -86 144z"/> <path d="M3175 5666 c-29 -7 -35 -33 -35 -157 l0 -149 60 0 c47 0 60 9 60 40 0 27 -13 40 -40 40 -22 0 -40 10 -40 22 0 12 18 26 40 32 22 6 40 23 40 38 0 16 -18 28 -40 28 -22 0 -40 9 -40 20 0 11 18 20 40 20 27 0 40 13 40 40 0 39 -16 44 -85 26z"/> <path d="M3364 5539 c7 -159 41 -213 104 -160 37 30 48 313 12 291 -11 -7 -20 -62 -20 -123 0 -79 -7 -108 -25 -102 -16 6 -25 48 -25 115 0 69 -9 110 -26 115 -20 7 -24 -24 -20 -136z"/> <path d="M3792 5663 c-6 -9 -3 -47 7 -85 10 -37 23 -102 30 -143 23 -134 51 -105 95 95 l26 120 10 -140 c10 -140 10 -140 70 -140 72 0 84 57 15 66 -56 8 -59 44 -5 58 22 6 40 19 40 30 0 11 -18 24 -40 30 -22 6 -40 19 -40 28 0 10 18 18 40 18 22 0 40 13 40 30 0 22 -23 30 -90 30 -89 0 -90 0 -103 -82 -14 -88 -46 -71 -47 26 0 55 -29 90 -48 59z"/> <path d="M4304 5656 c-36 -36 -29 -105 16 -146 49 -44 58 -110 10 -70 -40 33 -65 8 -37 -36 34 -55 85 -53 106 4 24 62 10 110 -47 158 l-42 37 45 -13 c54 -15 66 57 13 78 -40 15 -36 16 -64 -12z"/> <path d="M4595 5664 c-95 -6 -131 -46 -65 -71 22 -9 30 -43 30 -124 0 -81 7 -110 25 -104 17 6 23 42 18 110 -5 85 0 105 34 123 44 24 70 -38 72 -168 2 -106 59 -75 74 40 8 55 20 125 28 155 17 67 -14 73 -58 10 -25 -36 -31 -39 -32 -11 -1 44 -12 47 -126 40z"/> <path d="M2091 5535 c18 -183 69 -252 69 -94 0 33 9 59 20 59 11 0 20 -26 20 -59 0 -57 28 -97 46 -66 23 38 36 285 16 285 -12 0 -23 -29 -24 -65 l-3 -65 -12 58 c-15 69 -63 95 -63 35 0 -22 -9 -46 -20 -53 -11 -7 -20 10 -20 39 0 28 -9 51 -21 51 -14 0 -17 -43 -8 -125z"/> <path d="M2680 5630 c0 -16 9 -30 19 -30 10 0 22 -51 25 -113 8 -156 56 -172 56 -20 0 61 9 116 20 123 48 29 19 70 -50 70 -49 0 -70 -9 -70 -30z"/> <path d="M2971 5642 c-6 -9 3 -29 19 -42 20 -17 30 -62 30 -134 0 -79 7 -107 25 -101 17 6 23 42 18 112 -5 80 0 106 25 115 18 7 32 25 32 40 0 31 -130 40 -149 10z"/> <path d="M3540 5510 c0 -151 38 -219 42 -75 l2 75 31 -75 c46 -113 65 -91 65 75 0 150 -31 208 -45 85 l-8 -65 -16 65 c-31 126 -71 78 -71 -85z"/> <path d="M3720 5510 c0 -87 8 -150 20 -150 12 0 20 63 20 150 0 87 -8 150 -20 150 -12 0 -20 -63 -20 -150z"/> <path d="M4120 5510 c0 -87 8 -150 20 -150 11 0 20 28 20 61 0 36 8 56 20 49 11 -7 20 -29 20 -50 0 -40 34 -72 55 -51 7 7 3 40 -10 74 -16 43 -17 74 -3 100 33 63 4 117 -63 117 l-59 0 0 -150z"/> <path d="M4440 5510 c0 -87 8 -150 20 -150 12 0 20 63 20 150 0 87 -8 150 -20 150 -12 0 -20 -63 -20 -150z"/> <path d="M3829 4682 c-7 -40 -16 -90 -21 -112 -4 -22 -2 -28 4 -14 8 18 21 9 41 -28 35 -68 47 -383 15 -404 -21 -13 -71 -152 -97 -269 -22 -100 -47 -57 -58 100 -13 189 -7 468 10 495 33 52 40 161 8 121 -17 -21 -31 -54 -31 -72 0 -19 -13 -45 -29 -58 -16 -13 -31 -48 -35 -77 -6 -52 -8 -50 -60 36 -73 124 -169 233 -188 215 -8 -9 3 -40 25 -70 23 -30 57 -86 76 -125 l36 -70 -49 45 c-79 73 -98 9 -52 -171 l25 -94 12 70 c14 83 18 76 91 -190 52 -189 94 -296 160 -410 16 -27 37 -74 48 -104 24 -70 151 -44 129 26 -13 44 91 279 120 271 11 -3 26 -33 35 -67 9 -33 29 -72 46 -86 16 -14 30 -56 30 -93 0 -61 47 -107 110 -107 5 0 19 38 33 85 13 47 39 103 58 125 42 50 85 167 148 408 53 200 71 240 71 157 0 -109 37 -70 51 53 16 152 2 190 -53 140 -54 -48 -47 -2 9 65 73 88 100 147 68 147 -30 0 -158 -160 -196 -244 -29 -63 -59 -55 -59 15 0 27 -8 49 -18 49 -11 0 -25 26 -32 59 -7 32 -27 70 -45 85 -28 23 -31 21 -17 -14 38 -94 46 -150 49 -330 4 -210 -14 -440 -35 -440 -7 0 -25 52 -39 115 -15 63 -49 154 -77 202 -43 75 -48 100 -34 180 9 51 14 116 11 145 -3 28 9 63 26 77 35 29 44 211 11 231 -11 7 -20 1 -20 -14 -1 -19 -6 -18 -19 4 -29 46 -60 2 -78 -112 -27 -171 -56 -194 -72 -55 -22 189 -117 262 -142 109z m181 -690 c-9 -56 -15 -118 -14 -137 1 -19 -12 -35 -29 -35 -17 0 -27 11 -21 25 37 90 38 106 7 69 -28 -35 -30 -35 -42 4 -15 46 41 169 70 152 10 -7 13 3 5 22 -9 25 -6 30 13 19 19 -12 21 -44 11 -119z m111 -85 c20 -64 38 -99 40 -77 1 22 6 30 11 18 5 -12 1 -42 -8 -68 -15 -41 -20 -36 -44 52 -35 133 -50 143 -50 36 1 -78 -2 -85 -25 -55 -31 42 -32 67 -4 67 12 0 16 8 10 18 -12 20 10 148 23 134 5 -5 26 -61 47 -125z"/> <path d="M2338 4528 c-26 -28 -72 -64 -100 -79 -32 -17 -57 -50 -65 -87 -7 -36 -43 -84 -92 -124 -69 -55 -81 -76 -81 -141 0 -69 -5 -77 -50 -77 -56 0 -67 41 -20 80 20 17 30 62 30 142 l0 118 -140 0 -140 0 0 -110 c0 -113 -23 -140 -59 -71 -26 48 -98 72 -127 43 -51 -51 -74 -23 -74 88 0 84 -7 110 -30 110 -23 0 -30 -24 -30 -100 0 -85 -6 -100 -39 -100 -143 0 -115 -372 30 -409 38 -9 49 -25 49 -70 0 -209 294 -258 376 -62 43 102 85 102 127 1 37 -88 108 -128 189 -108 102 26 160 171 108 268 -13 25 -13 55 1 92 16 43 14 61 -9 84 -26 26 -20 42 47 132 41 56 92 131 112 167 21 36 45 65 53 65 31 0 96 -81 96 -119 0 -21 10 -45 22 -53 15 -9 20 -61 13 -151 -5 -76 -2 -137 9 -137 10 0 15 -61 12 -135 l-6 -135 -95 -44 c-102 -49 -105 -64 -30 -171 32 -46 52 -55 127 -55 75 0 110 12 204 72 19 11 -59 147 -104 183 l-53 41 20 176 c11 97 15 211 8 253 -9 57 -4 86 24 116 43 48 13 136 -52 154 -23 5 -58 45 -80 87 -33 64 -90 118 -124 118 -5 0 -30 -23 -57 -52z m102 -37 c0 -39 -39 -60 -64 -35 -11 11 -14 30 -7 42 20 32 71 27 71 -7z m-160 -190 c0 -50 -150 -246 -157 -204 -7 51 111 249 139 232 10 -6 18 -19 18 -28z m-665 -176 c6 -19 -33 -25 -152 -25 -149 0 -201 15 -168 48 24 25 311 4 320 -23z m1 -90 c6 -31 -11 -35 -153 -35 -154 0 -200 16 -172 61 23 38 317 15 325 -26z m-1 -110 c7 -19 34 -51 59 -71 112 -89 -27 -278 -146 -199 -74 49 -82 133 -19 196 l49 49 -128 0 c-119 0 -167 17 -136 47 32 32 307 13 321 -22z m520 -81 c87 -111 -67 -274 -160 -169 -59 68 -61 121 -6 176 56 56 119 53 166 -7z m481 -299 c-4 -19 -20 -35 -36 -35 -16 0 -32 16 -36 35 -5 25 6 35 36 35 30 0 41 -10 36 -35z"/> <path d="M1533 3818 c-63 -90 39 -183 116 -107 41 42 39 61 -9 109 -51 51 -71 50 -107 -2z m102 -53 c11 -33 -52 -56 -79 -29 -11 11 -14 31 -6 43 17 29 74 19 85 -14z"/> <path d="M1979 3799 c-19 -37 -16 -51 19 -86 55 -55 112 -25 112 59 0 77 -94 96 -131 27z m106 -11 c19 -19 -7 -68 -36 -68 -33 0 -55 34 -39 60 14 22 57 27 75 8z"/> <path d="M1649 4438 c-24 -38 21 -48 189 -41 124 5 162 13 162 35 0 35 -329 41 -351 6z"/> <path d="M3134 2871 c-53 -14 -121 -43 -150 -64 -52 -38 -57 -38 -144 -4 -205 80 -349 46 -389 -92 -16 -57 -89 -224 -161 -370 -72 -146 -129 -268 -126 -270 36 -22 499 18 467 41 -31 22 -33 32 -11 58 14 17 20 37 12 44 -13 14 -255 16 -312 3 -16 -4 -30 7 -30 23 0 21 25 32 80 36 l80 6 119 259 c109 238 191 339 191 235 0 -81 -147 -397 -180 -386 -31 10 -58 -32 -60 -93 0 -20 140 -63 155 -49 6 7 53 113 104 236 51 122 103 227 117 231 18 6 19 -4 4 -45 -33 -88 -20 -86 20 4 54 122 163 174 363 175 202 1 199 12 90 -320 l-96 -289 -258 0 c-143 0 -259 3 -259 7 0 5 14 47 30 94 44 125 25 117 -29 -12 -52 -125 -41 -147 89 -187 59 -18 58 -18 -24 -20 -46 -1 -89 -11 -96 -22 -9 -14 101 -19 333 -15 l346 5 105 350 c126 416 124 361 10 415 -107 52 -238 57 -390 16z m358 -420 c-18 -61 -46 -158 -62 -216 l-30 -105 -140 -2 c-97 -1 -140 6 -140 23 0 27 156 57 204 39 23 -9 47 34 106 190 81 216 114 254 62 71z"/> <path d="M3186 2799 c-156 -31 -181 -56 -286 -286 l-98 -215 74 6 c70 6 76 12 121 126 95 244 123 298 144 277 14 -14 1 -79 -40 -202 -75 -224 -77 -208 23 -201 l84 6 96 239 c122 304 125 298 -118 250z"/> <path d="M5600 5760 c0 -51 8 -60 50 -60 42 0 50 9 50 60 0 51 -8 60 -50 60 -42 0 -50 -9 -50 -60z"/> <path d="M5828 5791 c-20 -51 8 -94 57 -87 33 4 45 19 45 56 0 59 -82 84 -102 31z"/> <path d="M0 5650 c0 -40 10 -50 50 -50 40 0 50 10 50 50 0 40 -10 50 -50 50 -40 0 -50 -10 -50 -50z"/> <path d="M460 5650 c0 -37 11 -50 40 -50 46 0 48 8 19 61 -29 54 -59 49 -59 -11z"/> <path d="M5480 5651 c0 -44 9 -51 61 -51 53 0 61 7 55 45 -10 71 -116 77 -116 6z"/> <path d="M5720 5650 c0 -40 10 -50 50 -50 40 0 50 10 50 50 0 40 -10 50 -50 50 -40 0 -50 -10 -50 -50z"/> <path d="M5940 5650 c0 -31 11 -50 30 -50 19 0 30 19 30 50 0 31 -11 50 -30 50 -19 0 -30 -19 -30 -50z"/> <path d="M120 5530 c0 -40 10 -50 50 -50 40 0 50 10 50 50 0 40 -10 50 -50 50 -40 0 -50 -10 -50 -50z"/> <path d="M340 5530 c0 -40 10 -50 50 -50 40 0 50 10 50 50 0 40 -10 50 -50 50 -40 0 -50 -10 -50 -50z"/> <path d="M5380 5530 c0 -40 10 -50 50 -50 40 0 50 10 50 50 0 40 -10 50 -50 50 -40 0 -50 -10 -50 -50z"/> <path d="M5600 5530 c0 -40 10 -50 50 -50 40 0 50 10 50 50 0 40 -10 50 -50 50 -40 0 -50 -10 -50 -50z"/> <path d="M5816 5525 c-5 -44 -15 -54 -51 -50 -38 4 -45 -5 -45 -55 0 -50 8 -60 49 -60 38 0 50 -12 55 -55 5 -44 16 -55 56 -55 40 0 51 11 56 55 4 31 19 55 35 55 19 0 29 21 29 60 0 40 -10 60 -30 60 -19 0 -30 19 -30 50 0 78 -115 73 -124 -5z m124 -105 c0 -53 -7 -60 -60 -60 -53 0 -60 7 -60 60 0 53 7 60 60 60 53 0 60 -7 60 -60z"/> <path d="M230 5464 c-5 -6 -10 -32 -10 -57 0 -37 -11 -47 -50 -47 -42 0 -50 -9 -50 -60 0 -51 8 -60 50 -60 40 0 50 -10 50 -50 0 -42 9 -50 60 -50 51 0 60 8 60 50 0 40 10 50 50 50 42 0 50 9 50 60 0 51 -8 60 -50 60 -39 0 -50 10 -50 48 0 45 -80 86 -110 56z m110 -164 c0 -53 -7 -60 -60 -60 -53 0 -60 7 -60 60 0 53 7 60 60 60 53 0 60 -7 60 -60z"/> <path d="M471 5464 c-35 -34 -9 -104 39 -104 39 0 50 10 50 48 0 45 -61 84 -89 56z"/> <path d="M0 5410 c0 -40 10 -50 50 -50 40 0 50 10 50 50 0 40 -10 50 -50 50 -40 0 -50 -10 -50 -50z"/> <path d="M5480 5410 c0 -40 -10 -50 -50 -50 -59 0 -73 -87 -18 -108 45 -17 68 3 68 58 0 37 12 49 55 54 85 9 91 96 6 96 -52 0 -61 -8 -61 -50z"/> <path d="M5600 5300 c0 -53 -7 -60 -60 -60 -51 0 -60 -8 -60 -50 0 -42 9 -50 60 -50 51 0 60 8 60 50 0 40 10 50 50 50 42 0 50 9 50 60 0 51 -8 60 -50 60 -42 0 -50 -9 -50 -60z"/> <path d="M0 5190 c0 -40 10 -50 50 -50 40 0 50 10 50 50 0 40 -10 50 -50 50 -40 0 -50 -10 -50 -50z"/> <path d="M460 5190 c0 -40 10 -50 50 -50 40 0 50 10 50 50 0 40 -10 50 -50 50 -40 0 -50 -10 -50 -50z"/> <path d="M5720 5190 c0 -40 10 -50 50 -50 40 0 50 10 50 50 0 40 -10 50 -50 50 -40 0 -50 -10 -50 -50z"/> <path d="M5940 5190 c0 -31 11 -50 30 -50 19 0 30 19 30 50 0 31 -11 50 -30 50 -19 0 -30 -19 -30 -50z"/> <path d="M120 5070 c0 -40 10 -50 50 -50 40 0 50 10 50 50 0 40 -10 50 -50 50 -40 0 -50 -10 -50 -50z"/> <path d="M340 5070 c0 -40 10 -50 50 -50 40 0 50 10 50 50 0 40 -10 50 -50 50 -40 0 -50 -10 -50 -50z"/> <path d="M5380 5070 c0 -40 10 -50 50 -50 40 0 50 10 50 50 0 40 -10 50 -50 50 -40 0 -50 -10 -50 -50z"/> <path d="M5600 5070 c0 -40 10 -50 50 -50 40 0 50 10 50 50 0 40 -10 50 -50 50 -40 0 -50 -10 -50 -50z"/> <path d="M5820 5070 c0 -40 -10 -50 -50 -50 -42 0 -50 -9 -50 -60 0 -51 8 -60 50 -60 40 0 50 -10 50 -50 0 -27 9 -51 20 -52 80 -11 90 -5 96 47 4 31 19 55 35 55 19 0 29 21 29 60 0 40 -10 60 -30 60 -19 0 -30 19 -30 50 0 42 -9 50 -60 50 -51 0 -60 -8 -60 -50z m120 -110 c0 -53 -7 -60 -60 -60 -53 0 -60 7 -60 60 0 53 7 60 60 60 53 0 60 -7 60 -60z"/> <path d="M0 4960 c0 -51 8 -60 50 -60 42 0 50 9 50 60 0 51 -8 60 -50 60 -42 0 -50 -9 -50 -60z"/> <path d="M228 4991 c-20 -51 8 -94 57 -87 33 4 45 19 45 56 0 59 -82 84 -102 31z"/> <path d="M460 4961 c0 -52 7 -61 51 -61 71 0 65 106 -6 116 -38 6 -45 -2 -45 -55z"/> <path d="M5494 5008 c-8 -8 -14 -36 -14 -61 0 -37 -11 -47 -50 -47 -40 0 -50 -10 -50 -50 0 -40 10 -50 50 -50 40 0 50 10 50 49 0 38 12 50 55 55 44 5 55 16 55 56 0 50 -63 81 -96 48z"/> <path d="M120 4850 c0 -40 10 -50 50 -50 40 0 50 10 50 50 0 40 -10 50 -50 50 -40 0 -50 -10 -50 -50z"/> <path d="M340 4850 c0 -40 10 -50 50 -50 40 0 50 10 50 50 0 40 -10 50 -50 50 -40 0 -50 -10 -50 -50z"/> <path d="M5600 4840 c0 -53 -7 -60 -60 -60 -51 0 -60 -8 -60 -50 0 -42 9 -50 60 -50 53 0 60 -7 60 -60 0 -51 8 -60 50 -60 42 0 50 9 50 60 0 51 -8 60 -50 60 -40 0 -50 10 -50 50 0 40 10 50 50 50 42 0 50 9 50 60 0 51 -8 60 -50 60 -42 0 -50 -9 -50 -60z"/> <path d="M0 4730 c0 -40 10 -50 50 -50 40 0 50 10 50 50 0 40 -10 50 -50 50 -40 0 -50 -10 -50 -50z"/> <path d="M220 4730 c0 -42 9 -50 60 -50 51 0 60 8 60 50 0 42 -9 50 -60 50 -51 0 -60 -8 -60 -50z"/> <path d="M460 4730 c0 -40 10 -50 50 -50 40 0 50 10 50 50 0 40 -10 50 -50 50 -40 0 -50 -10 -50 -50z"/> <path d="M5720 4730 c0 -40 10 -50 50 -50 40 0 50 10 50 50 0 40 -10 50 -50 50 -40 0 -50 -10 -50 -50z"/> <path d="M5940 4730 c0 -31 11 -50 30 -50 19 0 30 19 30 50 0 31 -11 50 -30 50 -19 0 -30 -19 -30 -50z"/> <path d="M365 4665 c-50 -17 -29 -105 25 -105 39 0 50 10 50 48 0 49 -31 73 -75 57z"/> <path d="M5834 4668 c-8 -8 -14 -36 -14 -61 0 -37 -11 -47 -50 -47 -42 0 -50 -9 -50 -60 0 -51 8 -60 50 -60 40 0 50 -10 50 -50 0 -42 9 -50 60 -50 51 0 60 8 60 50 0 31 11 50 30 50 20 0 30 20 30 60 0 39 -10 60 -29 60 -16 0 -31 24 -35 55 -6 54 -68 86 -102 53z m106 -168 c0 -53 -7 -60 -60 -60 -53 0 -60 7 -60 60 0 53 7 60 60 60 53 0 60 -7 60 -60z"/> <path d="M120 4610 c0 -40 10 -50 50 -50 40 0 50 10 50 50 0 40 -10 50 -50 50 -40 0 -50 -10 -50 -50z"/> <path d="M5380 4610 c0 -40 10 -50 49 -50 38 0 50 -12 55 -55 8 -70 86 -89 106 -26 17 55 -2 81 -61 81 -39 0 -49 10 -49 50 0 40 -10 50 -50 50 -40 0 -50 -10 -50 -50z"/> <path d="M0 4500 c0 -51 8 -60 50 -60 42 0 50 9 50 60 0 51 -8 60 -50 60 -42 0 -50 -9 -50 -60z"/> <path d="M228 4531 c-20 -51 8 -94 57 -87 33 4 45 19 45 56 0 59 -82 84 -102 31z"/> <path d="M460 4499 c0 -49 7 -61 32 -51 17 7 40 12 51 12 42 0 7 90 -38 96 -39 6 -45 -2 -45 -57z"/> <path d="M120 4390 c0 -40 10 -50 50 -50 40 0 50 10 50 50 0 40 -10 50 -50 50 -40 0 -50 -10 -50 -50z"/> <path d="M340 4390 c0 -40 10 -50 50 -50 40 0 50 10 50 50 0 40 -10 50 -50 50 -40 0 -50 -10 -50 -50z"/> <path d="M5380 4390 c0 -40 10 -50 50 -50 40 0 50 10 50 50 0 40 -10 50 -50 50 -40 0 -50 -10 -50 -50z"/> <path d="M5600 4390 c0 -40 10 -50 50 -50 40 0 50 10 50 50 0 40 -10 50 -50 50 -40 0 -50 -10 -50 -50z"/> <path d="M0 4270 c0 -40 10 -50 50 -50 40 0 50 10 50 50 0 40 -10 50 -50 50 -40 0 -50 -10 -50 -50z"/> <path d="M220 4270 c0 -40 -10 -50 -50 -50 -42 0 -50 -9 -50 -60 0 -51 8 -60 50 -60 40 0 50 -10 50 -50 0 -42 9 -50 60 -50 51 0 60 8 60 50 0 40 10 50 50 50 42 0 50 9 50 60 0 51 -8 60 -50 60 -40 0 -50 10 -50 50 0 42 -9 50 -60 50 -51 0 -60 -8 -60 -50z m120 -110 c0 -53 -7 -60 -60 -60 -53 0 -60 7 -60 60 0 53 7 60 60 60 53 0 60 -7 60 -60z"/> <path d="M460 4269 c0 -69 87 -63 96 6 6 37 -3 45 -45 45 -41 0 -51 -10 -51 -51z"/> <path d="M5480 4270 c0 -42 9 -50 60 -50 53 0 60 -7 60 -60 0 -51 8 -60 50 -60 42 0 50 9 50 60 0 51 -8 60 -50 60 -40 0 -50 10 -50 50 0 42 -9 50 -60 50 -51 0 -60 -8 -60 -50z"/> <path d="M5720 4270 c0 -40 10 -50 50 -50 40 0 50 10 50 50 0 40 -10 50 -50 50 -40 0 -50 -10 -50 -50z"/> <path d="M5940 4270 c0 -31 11 -50 30 -50 19 0 30 19 30 50 0 31 -11 50 -30 50 -19 0 -30 -19 -30 -50z"/> <path d="M5415 4205 c-59 -13 -46 -105 15 -105 40 0 50 -10 50 -50 0 -42 9 -50 61 -50 85 0 79 87 -6 96 -43 5 -55 17 -55 54 0 54 -15 66 -65 55z"/> <path d="M5834 4208 c-8 -8 -14 -36 -14 -61 0 -37 -11 -47 -51 -47 -71 0 -65 -106 6 -116 33 -5 45 -20 45 -55 0 -41 10 -49 60 -49 51 0 60 8 60 50 0 31 11 50 30 50 20 0 30 20 30 60 0 39 -10 60 -29 60 -16 0 -31 24 -35 55 -6 54 -68 86 -102 53z m106 -168 c0 -53 -7 -60 -60 -60 -53 0 -60 7 -60 60 0 53 7 60 60 60 53 0 60 -7 60 -60z"/> <path d="M0 4050 c0 -40 10 -50 50 -50 40 0 50 10 50 50 0 40 -10 50 -50 50 -40 0 -50 -10 -50 -50z"/> <path d="M460 4050 c0 -31 11 -50 30 -50 19 0 30 19 30 50 0 31 -11 50 -30 50 -19 0 -30 -19 -30 -50z"/> <path d="M120 3930 c0 -40 10 -50 50 -50 40 0 50 10 50 50 0 40 -10 50 -50 50 -40 0 -50 -10 -50 -50z"/> <path d="M340 3930 c0 -40 10 -50 50 -50 40 0 50 10 50 50 0 40 -10 50 -50 50 -40 0 -50 -10 -50 -50z"/> <path d="M5380 3930 c0 -40 10 -50 50 -50 40 0 50 10 50 50 0 40 -10 50 -50 50 -40 0 -50 -10 -50 -50z"/> <path d="M5600 3930 c0 -40 10 -50 50 -50 40 0 50 10 50 50 0 40 -10 50 -50 50 -40 0 -50 -10 -50 -50z"/> <path d="M0 3810 c0 -40 10 -50 50 -50 40 0 50 10 50 50 0 40 -10 50 -50 50 -40 0 -50 -10 -50 -50z"/> <path d="M220 3810 c0 -40 -10 -50 -50 -50 -42 0 -50 -9 -50 -60 0 -51 8 -60 50 -60 40 0 50 -10 50 -50 0 -42 9 -50 60 -50 51 0 60 8 60 50 0 40 10 50 50 50 42 0 50 9 50 60 0 51 -8 60 -50 60 -40 0 -50 10 -50 50 0 42 -9 50 -60 50 -51 0 -60 -8 -60 -50z m120 -110 c0 -53 -7 -60 -60 -60 -53 0 -60 7 -60 60 0 53 7 60 60 60 53 0 60 -7 60 -60z"/> <path d="M460 3808 c0 -30 10 -48 23 -44 33 11 36 96 4 96 -16 0 -27 -22 -27 -52z"/> <path d="M5480 3811 c0 -31 -14 -53 -40 -61 -22 -7 -40 -29 -40 -50 0 -21 18 -43 40 -50 26 -8 40 -30 40 -61 0 -41 10 -49 60 -49 51 0 60 8 60 50 0 40 10 50 50 50 42 0 50 9 50 60 0 51 -8 60 -50 60 -42 0 -50 -9 -50 -60 0 -53 -7 -60 -60 -60 -87 0 -91 114 -5 124 85 9 91 96 6 96 -51 0 -61 -8 -61 -49z"/> <path d="M5720 3810 c0 -40 10 -50 50 -50 40 0 50 10 50 50 0 40 -10 50 -50 50 -40 0 -50 -10 -50 -50z"/> <path d="M5940 3810 c0 -31 11 -50 30 -50 19 0 30 19 30 50 0 31 -11 50 -30 50 -19 0 -30 -19 -30 -50z"/> <path d="M5828 3731 c-20 -51 8 -94 57 -87 33 4 45 19 45 56 0 59 -82 84 -102 31z"/> <path d="M0 3590 c0 -40 10 -50 50 -50 40 0 50 10 50 50 0 40 -10 50 -50 50 -40 0 -50 -10 -50 -50z"/> <path d="M5720 3590 c0 -40 10 -50 50 -50 40 0 50 10 50 50 0 40 -10 50 -50 50 -40 0 -50 -10 -50 -50z"/> <path d="M5940 3590 c0 -31 11 -50 30 -50 19 0 30 19 30 50 0 31 -11 50 -30 50 -19 0 -30 -19 -30 -50z"/> <path d="M120 3470 c0 -40 10 -50 50 -50 40 0 50 10 50 50 0 40 -10 50 -50 50 -40 0 -50 -10 -50 -50z"/> <path d="M340 3470 c0 -40 10 -50 50 -50 40 0 50 10 50 50 0 40 -10 50 -50 50 -40 0 -50 -10 -50 -50z"/> <path d="M5400 3502 c0 -10 -5 -33 -12 -50 -9 -24 1 -32 40 -32 72 0 78 -113 7 -124 -60 -8 -73 -87 -17 -101 49 -13 62 -1 62 57 0 35 13 47 55 52 44 5 55 16 55 56 0 40 -11 51 -55 56 -43 5 -55 17 -55 55 0 36 -11 49 -40 49 -22 0 -40 -8 -40 -18z"/> <path d="M5600 3470 c0 -40 10 -50 50 -50 40 0 50 10 50 50 0 40 -10 50 -50 50 -40 0 -50 -10 -50 -50z"/> <path d="M5820 3470 c0 -40 -10 -50 -50 -50 -42 0 -50 -9 -50 -60 0 -50 8 -60 49 -60 38 0 50 -12 55 -55 5 -44 16 -55 56 -55 40 0 51 11 56 55 4 31 19 55 35 55 19 0 29 21 29 60 0 40 -10 60 -30 60 -19 0 -30 19 -30 50 0 42 -9 50 -60 50 -51 0 -60 -8 -60 -50z m120 -110 c0 -53 -7 -60 -60 -60 -53 0 -60 7 -60 60 0 53 7 60 60 60 53 0 60 -7 60 -60z"/> <path d="M35 3406 c-59 -15 -46 -106 15 -106 42 0 50 9 50 60 0 33 -7 59 -15 58 -8 -2 -31 -7 -50 -12z"/> <path d="M234 3408 c-8 -8 -14 -36 -14 -61 0 -37 -11 -47 -50 -47 -42 0 -50 -9 -50 -61 0 -85 87 -79 96 6 6 46 16 55 64 55 48 0 58 -9 64 -55 4 -40 17 -55 46 -55 29 0 42 15 46 55 6 47 -1 55 -43 55 -40 0 -52 11 -57 55 -6 54 -68 86 -102 53z"/> <path d="M5600 3240 c0 -51 8 -60 50 -60 42 0 50 9 50 60 0 51 -8 60 -50 60 -42 0 -50 -9 -50 -60z"/> <path d="M0 3130 c0 -40 10 -50 50 -50 40 0 50 10 50 50 0 40 -10 50 -50 50 -40 0 -50 -10 -50 -50z"/> <path d="M220 3130 c0 -42 9 -50 60 -50 51 0 60 8 60 50 0 42 -9 50 -60 50 -51 0 -60 -8 -60 -50z"/> <path d="M460 3130 c0 -31 11 -50 30 -50 19 0 30 19 30 50 0 31 -11 50 -30 50 -19 0 -30 -19 -30 -50z"/> <path d="M5480 3131 c0 -44 9 -51 61 -51 53 0 61 7 55 45 -10 71 -116 77 -116 6z"/> <path d="M5720 3130 c0 -40 10 -50 50 -50 40 0 50 10 50 50 0 40 -10 50 -50 50 -40 0 -50 -10 -50 -50z"/> <path d="M5940 3130 c0 -31 11 -50 30 -50 19 0 30 19 30 50 0 31 -11 50 -30 50 -19 0 -30 -19 -30 -50z"/> <path d="M120 3010 c0 -40 10 -50 50 -50 40 0 50 10 50 50 0 40 -10 50 -50 50 -40 0 -50 -10 -50 -50z"/> <path d="M340 3010 c0 -40 10 -50 50 -50 40 0 50 10 50 50 0 40 -10 50 -50 50 -40 0 -50 -10 -50 -50z"/> <path d="M5380 3010 c0 -40 10 -50 50 -50 78 0 73 -115 -5 -124 -85 -9 -91 -96 -6 -96 51 0 61 8 61 49 0 38 12 50 55 55 44 5 55 16 55 56 0 40 -11 51 -55 56 -43 5 -55 17 -55 55 0 39 -10 49 -50 49 -40 0 -50 -10 -50 -50z"/> <path d="M5600 3010 c0 -40 10 -50 50 -50 40 0 50 10 50 50 0 40 -10 50 -50 50 -40 0 -50 -10 -50 -50z"/> <path d="M5820 3010 c0 -40 -10 -50 -50 -50 -42 0 -50 -9 -50 -61 0 -85 87 -79 96 6 10 86 124 82 124 -5 0 -53 -7 -60 -60 -60 -51 0 -60 -8 -60 -50 0 -42 9 -50 60 -50 51 0 60 8 60 50 0 31 11 50 30 50 20 0 30 20 30 60 0 40 -10 60 -30 60 -19 0 -30 19 -30 50 0 42 -9 50 -60 50 -51 0 -60 -8 -60 -50z"/> <path d="M0 2900 c0 -51 8 -60 50 -60 42 0 50 9 50 60 0 51 -8 60 -50 60 -42 0 -50 -9 -50 -60z"/> <path d="M228 2931 c-20 -51 8 -94 57 -87 33 4 45 19 45 56 0 59 -82 84 -102 31z"/> <path d="M460 2902 c0 -53 7 -62 50 -62 40 0 50 10 50 50 0 28 -8 50 -18 50 -10 0 -33 5 -50 12 -25 10 -32 -1 -32 -50z"/> <path d="M5312 2941 c-52 -19 -57 -77 -9 -92 51 -16 62 -5 54 56 -6 39 -15 47 -45 36z"/> <path d="M120 2790 c0 -40 10 -50 50 -50 40 0 50 10 50 50 0 40 -10 50 -50 50 -40 0 -50 -10 -50 -50z"/> <path d="M340 2790 c0 -40 10 -50 50 -50 40 0 50 10 50 50 0 40 -10 50 -50 50 -40 0 -50 -10 -50 -50z"/> <path d="M580 2792 c0 -38 10 -52 39 -52 32 0 37 8 23 44 -23 64 -62 69 -62 8z"/> <path d="M5600 2790 c0 -40 10 -50 50 -50 40 0 50 10 50 50 0 40 -10 50 -50 50 -40 0 -50 -10 -50 -50z"/> <path d="M0 2670 c0 -40 10 -50 50 -50 40 0 50 10 50 50 0 40 -10 50 -50 50 -40 0 -50 -10 -50 -50z"/> <path d="M220 2670 c0 -42 9 -50 60 -50 51 0 60 8 60 50 0 42 -9 50 -60 50 -51 0 -60 -8 -60 -50z"/> <path d="M460 2670 c0 -40 10 -50 50 -50 40 0 50 10 50 50 0 40 -10 50 -50 50 -40 0 -50 -10 -50 -50z"/> <path d="M5260 2682 c0 -35 36 -62 82 -62 10 0 18 23 18 50 0 40 -10 50 -50 50 -36 0 -50 -11 -50 -38z"/> <path d="M5480 2670 c0 -42 9 -50 60 -50 51 0 60 8 60 50 0 42 -9 50 -60 50 -51 0 -60 -8 -60 -50z"/> <path d="M5720 2670 c0 -40 10 -50 50 -50 40 0 50 10 50 50 0 40 -10 50 -50 50 -40 0 -50 -10 -50 -50z"/> <path d="M5940 2670 c0 -31 11 -50 30 -50 19 0 30 19 30 50 0 31 -11 50 -30 50 -19 0 -30 -19 -30 -50z"/> <path d="M120 2561 c0 -52 8 -61 50 -61 40 0 50 -10 50 -51 0 -71 106 -65 116 6 5 33 20 45 55 45 41 0 49 10 49 61 0 85 -87 79 -96 -6 -6 -46 -16 -55 -64 -55 -48 0 -58 9 -64 55 -9 85 -96 91 -96 6z"/> <path d="M5613 2607 c-36 -37 -12 -107 37 -107 42 0 50 9 50 60 0 58 -49 84 -87 47z"/> <path d="M5834 2608 c-8 -8 -14 -36 -14 -61 0 -37 -11 -47 -50 -47 -40 0 -50 -10 -50 -50 0 -40 10 -50 50 -50 40 0 50 10 50 50 0 42 9 50 60 50 53 0 60 -7 60 -60 0 -54 -6 -60 -62 -60 -49 0 -60 -7 -50 -32 7 -17 12 -40 12 -50 0 -10 23 -18 50 -18 40 0 50 10 50 50 0 31 11 50 30 50 20 0 30 20 30 60 0 39 -10 60 -29 60 -16 0 -31 24 -35 55 -6 54 -68 86 -102 53z"/> <path d="M5139 2407 c-233 -327 -663 -709 -1099 -977 -180 -110 -756 -409 -793 -411 -9 0 -62 -21 -117 -47 l-100 -47 -180 66 c-800 291 -1484 768 -2014 1404 -67 80 -130 145 -141 145 -20 0 -192 -142 -365 -302 -55 -51 -134 -122 -175 -157 -95 -82 -95 -80 29 -238 536 -688 1377 -1217 2625 -1654 210 -74 161 -84 741 152 836 342 1500 751 1960 1209 202 201 430 484 430 534 0 20 -655 476 -685 476 -3 0 -56 -69 -116 -153z m460 -133 c316 -213 303 -192 198 -330 -470 -617 -1266 -1155 -2357 -1594 -485 -195 -412 -188 -733 -69 -1216 452 -1928 904 -2452 1558 l-119 149 88 81 c48 45 172 157 274 250 l187 168 91 -108 c535 -641 1295 -1167 2096 -1450 l162 -57 138 57 c852 356 1669 946 2016 1456 70 102 83 112 115 90 20 -14 153 -104 296 -201z"/> <path d="M5342 2152 c-65 -67 -73 -142 -9 -90 23 20 39 12 83 -41 50 -60 58 -63 83 -33 24 29 20 41 -29 92 -44 46 -51 65 -33 86 21 26 13 54 -16 54 -7 0 -43 -31 -79 -68z"/> <path d="M679 1959 c-64 -81 -59 -167 5 -103 40 40 60 27 47 -33 -9 -38 -3 -65 17 -82 26 -21 32 -16 43 32 22 99 27 107 68 107 23 0 41 8 41 19 0 28 -45 51 -86 44 -29 -5 -33 4 -23 46 21 80 -37 64 -112 -30z"/> <path d="M5214 2015 c-5 -14 6 -42 24 -63 31 -36 29 -38 -30 -26 -100 19 -115 -20 -43 -109 34 -42 74 -77 88 -77 31 0 36 52 7 70 -41 26 -18 42 50 34 88 -10 90 15 8 118 -65 82 -89 94 -104 53z"/> <path d="M865 1763 c-55 -68 -60 -83 -35 -103 24 -20 32 -18 42 8 21 56 54 36 41 -26 -20 -103 33 -116 105 -25 34 43 62 89 62 101 0 34 -42 26 -73 -13 -25 -31 -28 -26 -23 44 8 109 -38 115 -119 14z"/> <path d="M4991 1781 l-56 -58 68 -81 c80 -97 76 -97 145 -24 70 73 51 127 -20 60 -55 -52 -68 -13 -15 45 30 33 30 37 1 37 -17 0 -37 -9 -44 -20 -7 -11 -22 -20 -34 -20 -12 0 -7 16 11 37 78 86 26 110 -56 24z"/> <path d="M4859 1648 c-22 -25 -22 -39 -1 -72 34 -55 11 -70 -38 -26 -88 79 -115 -8 -38 -117 67 -95 139 -104 81 -11 -31 50 -19 71 17 28 14 -16 38 -30 55 -30 29 0 29 13 -4 110 -12 35 -9 35 20 -5 79 -106 92 -34 14 76 -62 88 -70 92 -106 47z"/> <path d="M1105 1627 c-104 -42 -81 -227 30 -243 101 -15 156 148 72 215 -55 43 -61 44 -102 28z m86 -88 c16 -26 -27 -79 -63 -79 -29 0 -39 63 -15 87 20 20 63 16 78 -8z"/> <path d="M1261 1407 c-59 -132 -39 -188 40 -116 49 44 70 27 39 -32 -49 -90 19 -107 107 -26 84 78 94 170 10 95 -43 -38 -43 -38 -30 17 16 65 -28 96 -77 55 -26 -21 -28 -16 -17 38 18 94 -25 76 -72 -31z"/> <path d="M4603 1423 c-55 -42 -49 -80 27 -173 39 -47 54 -54 73 -35 19 19 19 31 2 48 -17 17 -15 34 8 69 65 99 -15 164 -110 91z"/> <path d="M1503 1205 l-63 -95 55 -45 c30 -25 66 -45 80 -45 36 0 31 41 -8 70 -31 23 -30 30 10 95 76 123 6 142 -74 20z"/> <path d="M4400 1260 c-51 -51 -50 -81 1 -147 101 -128 256 1 167 138 -40 60 -113 64 -168 9z m118 -56 c11 -22 12 -48 1 -65 -24 -39 -90 24 -72 69 16 42 47 40 71 -4z"/> <path d="M1670 1068 c-29 -50 -50 -93 -47 -96 108 -78 142 -95 161 -76 14 14 8 29 -22 47 -23 15 -42 38 -42 52 0 20 8 20 39 1 52 -33 82 0 32 35 -50 37 -27 60 26 26 67 -42 78 3 13 55 -82 66 -98 61 -160 -44z"/> <path d="M4189 1114 c-19 -50 90 -216 128 -195 88 48 113 78 89 103 -19 19 -31 19 -56 -2 -36 -30 -34 -31 -78 55 -35 68 -66 83 -83 39z"/> <path d="M4045 1018 l-64 -41 50 -99 c27 -54 54 -98 58 -98 23 0 151 86 151 102 0 23 -42 23 -79 -1 -51 -32 -68 3 -19 40 56 42 40 72 -20 40 -27 -14 -42 -15 -42 -2 0 11 18 29 41 41 22 12 35 31 28 41 -16 27 -31 24 -104 -23z"/> <path d="M1861 947 c-52 -117 -52 -118 18 -146 153 -64 247 134 100 210 -76 39 -72 41 -118 -64z m119 -33 c0 -13 -9 -37 -19 -54 -29 -45 -61 0 -39 56 17 46 58 44 58 -2z"/> <path d="M3914 947 c-8 -8 -9 -44 -2 -81 15 -78 -14 -87 -52 -16 -30 55 -37 58 -80 30 -25 -16 -16 -33 53 -102 113 -114 151 -99 143 55 -6 106 -29 148 -62 114z"/> <path d="M2091 856 c-64 -92 -14 -196 94 -196 53 0 91 58 65 100 -20 32 -70 23 -70 -12 0 -38 -48 -26 -55 14 -10 57 30 90 74 63 53 -33 81 -32 81 4 0 73 -142 93 -189 27z"/> <path d="M3666 832 c-88 -31 -88 -31 -53 -149 33 -112 29 -111 162 -61 74 28 55 64 -25 49 -75 -14 -99 17 -30 39 59 19 50 57 -10 42 -29 -7 -50 -4 -50 8 0 11 7 20 16 20 9 0 33 12 53 27 51 37 14 52 -63 25z"/> <path d="M2314 764 c-7 -33 -18 -82 -25 -109 -12 -50 57 -95 144 -95 45 0 30 57 -16 64 -24 3 -48 18 -52 32 -7 19 5 22 43 13 34 -9 52 -5 52 11 0 13 -18 28 -40 34 -22 6 -40 19 -40 28 0 23 14 23 60 -2 41 -22 78 10 47 40 -55 54 -161 44 -173 -16z"/> <path d="M3393 746 c-26 -7 -33 -22 -26 -53 6 -24 16 -77 24 -118 12 -68 18 -74 66 -62 88 21 128 68 114 135 -20 104 -64 127 -178 98z m105 -82 c26 -50 -8 -109 -38 -64 -25 39 -26 100 -1 100 11 0 28 -16 39 -36z"/> <path d="M2611 675 c-23 -145 -22 -164 14 -171 24 -5 35 6 35 35 0 27 13 41 39 41 55 0 70 35 21 50 -58 18 -49 53 10 38 37 -9 50 -4 50 17 0 18 -26 35 -62 43 -94 18 -95 17 -107 -53z"/> <path d="M2831 669 c-17 -18 -31 -58 -31 -89 0 -108 117 -160 187 -83 70 77 22 203 -77 203 -26 0 -61 -14 -79 -31z m122 -59 c12 -31 -24 -90 -55 -90 -10 0 -18 27 -18 60 0 65 51 86 73 30z"/> <path d="M3060 580 c0 -106 5 -122 35 -116 23 5 33 22 29 51 -4 25 3 45 15 45 11 0 21 -8 21 -19 0 -24 57 -81 81 -81 23 0 25 67 4 88 -8 9 -15 44 -15 79 0 60 -4 63 -85 69 l-85 6 0 -122z"/> <path d="M4 2445 c4 -40 17 -55 46 -55 29 0 42 15 46 55 6 48 0 55 -46 55 -46 0 -52 -7 -46 -55z"/> <path d="M120 2330 c0 -40 10 -50 50 -50 40 0 50 10 50 50 0 40 -10 50 -50 50 -40 0 -50 -10 -50 -50z"/> <path d="M0 2210 c0 -40 10 -50 50 -50 40 0 50 10 50 50 0 40 -10 50 -50 50 -40 0 -50 -10 -50 -50z"/> <path d="M0 1751 c0 -41 10 -51 51 -51 69 0 63 87 -6 96 -37 6 -45 -3 -45 -45z"/> <path d="M5940 1750 c0 -31 11 -50 30 -50 19 0 30 19 30 50 0 31 -11 50 -30 50 -19 0 -30 -19 -30 -50z"/> <path d="M120 1639 c0 -55 5 -60 45 -48 72 22 70 49 -6 90 -35 18 -39 14 -39 -42z"/> <path d="M5828 1671 c-20 -51 8 -94 57 -87 33 4 45 19 45 56 0 59 -82 84 -102 31z"/> <path d="M0 1530 c0 -40 10 -50 50 -50 40 0 50 10 50 50 0 40 -10 50 -50 50 -40 0 -50 -10 -50 -50z"/> <path d="M233 1566 c-34 -33 -11 -86 37 -86 31 0 50 11 50 29 0 33 -68 77 -87 57z"/> <path d="M5720 1530 c0 -40 10 -50 50 -50 40 0 50 10 50 50 0 40 -10 50 -50 50 -40 0 -50 -10 -50 -50z"/> <path d="M5940 1530 c0 -31 11 -50 30 -50 19 0 30 19 30 50 0 31 -11 50 -30 50 -19 0 -30 -19 -30 -50z"/> <path d="M120 1410 c0 -40 10 -50 50 -50 40 0 50 10 50 50 0 40 -10 50 -50 50 -40 0 -50 -10 -50 -50z"/> <path d="M340 1410 c0 -40 10 -50 50 -50 51 0 59 14 38 68 -21 54 -88 40 -88 -18z"/> <path d="M5600 1410 c0 -40 10 -50 50 -50 40 0 50 10 50 50 0 40 -10 50 -50 50 -40 0 -50 -10 -50 -50z"/> <path d="M5820 1410 c0 -40 -10 -50 -50 -50 -42 0 -50 -9 -50 -60 0 -51 8 -60 50 -60 40 0 50 -10 50 -49 0 -31 14 -53 40 -61 54 -17 80 3 80 61 0 30 12 49 30 49 20 0 30 20 30 60 0 40 -10 60 -30 60 -19 0 -30 19 -30 50 0 42 -9 50 -60 50 -51 0 -60 -8 -60 -50z m120 -110 c0 -53 -7 -60 -60 -60 -53 0 -60 7 -60 60 0 53 7 60 60 60 53 0 60 -7 60 -60z"/> <path d="M13 1347 c-36 -37 -12 -107 37 -107 42 0 50 9 50 60 0 58 -49 84 -87 47z"/> <path d="M234 1348 c-8 -8 -14 -36 -14 -61 0 -37 -11 -47 -50 -47 -40 0 -50 -10 -50 -50 0 -40 10 -50 50 -50 40 0 50 10 50 50 0 42 9 50 60 50 51 0 60 -8 60 -50 0 -27 7 -51 15 -52 8 0 31 -4 50 -8 27 -5 35 7 35 52 0 48 -8 58 -49 58 -38 0 -50 12 -55 55 -6 54 -68 86 -102 53z"/> <path d="M5525 1345 c-32 -6 -45 -22 -45 -56 0 -39 -10 -49 -49 -49 -71 0 -99 -91 -31 -100 62 -9 80 1 80 49 0 38 12 50 55 55 34 4 57 20 62 43 9 48 -15 67 -72 58z"/> <path d="M460 1290 c0 -40 10 -50 50 -50 53 0 66 36 26 76 -40 40 -76 27 -76 -26z"/> <path d="M572 1208 c-21 -56 -13 -68 47 -68 49 0 57 7 47 35 -24 65 -75 83 -94 33z"/> <path d="M5600 1180 c0 -53 -7 -60 -60 -60 -51 0 -60 -8 -60 -50 0 -78 115 -73 124 5 3 30 17 56 31 58 14 1 34 3 45 5 49 6 20 102 -30 102 -42 0 -50 -9 -50 -60z"/> <path d="M0 1070 c0 -40 10 -50 50 -50 40 0 50 10 50 50 0 40 -10 50 -50 50 -40 0 -50 -10 -50 -50z"/> <path d="M220 1070 c0 -42 9 -50 60 -50 51 0 60 8 60 50 0 42 -9 50 -60 50 -51 0 -60 -8 -60 -50z"/> <path d="M460 1070 c0 -40 10 -50 50 -50 40 0 50 10 50 50 0 40 -10 50 -50 50 -40 0 -50 -10 -50 -50z"/> <path d="M680 1070 c0 -40 10 -50 50 -50 40 0 50 10 50 50 0 40 -10 50 -50 50 -40 0 -50 -10 -50 -50z"/> <path d="M5260 1070 c0 -40 10 -50 50 -50 40 0 50 10 50 50 0 40 -10 50 -50 50 -40 0 -50 -10 -50 -50z"/> <path d="M5720 1070 c0 -40 10 -50 50 -50 40 0 50 10 50 50 0 40 -10 50 -50 50 -40 0 -50 -10 -50 -50z"/> <path d="M5940 1070 c0 -31 11 -50 30 -50 19 0 30 19 30 50 0 31 -11 50 -30 50 -19 0 -30 -19 -30 -50z"/> <path d="M385 1006 c-68 -13 -64 -106 5 -106 42 0 50 9 50 60 0 33 -2 59 -5 57 -3 -1 -25 -6 -50 -11z"/> <path d="M120 950 c0 -40 10 -50 50 -50 40 0 50 10 50 50 0 40 -10 50 -50 50 -40 0 -50 -10 -50 -50z"/> <path d="M564 955 c4 -32 22 -47 61 -51 86 -10 82 -124 -5 -124 -53 0 -60 7 -60 60 0 51 -8 60 -50 60 -78 0 -73 -115 5 -124 40 -4 55 -17 55 -46 0 -29 15 -42 55 -46 47 -6 55 1 55 43 0 40 11 52 55 57 80 9 80 103 0 112 -43 5 -55 17 -55 55 0 41 -10 49 -61 49 -53 0 -61 -7 -55 -45z"/> <path d="M800 950 c0 -40 10 -50 50 -50 40 0 50 10 50 50 0 40 -10 50 -50 50 -40 0 -50 -10 -50 -50z"/> <path d="M4955 972 c-50 -38 -43 -72 15 -72 40 0 50 10 50 50 0 56 -14 61 -65 22z"/> <path d="M5140 950 c0 -40 10 -50 50 -50 40 0 50 10 50 50 0 40 -10 50 -50 50 -40 0 -50 -10 -50 -50z"/> <path d="M5364 955 c4 -32 22 -47 61 -51 86 -10 82 -124 -5 -124 -53 0 -60 7 -60 60 0 51 -8 60 -50 60 -78 0 -73 -115 5 -124 40 -4 55 -17 55 -46 0 -29 15 -42 55 -46 47 -6 55 1 55 43 0 40 11 52 55 57 44 5 55 16 55 56 0 40 -11 51 -55 56 -43 5 -55 17 -55 55 0 41 -10 49 -61 49 -53 0 -61 -7 -55 -45z"/> <path d="M5600 950 c0 -40 10 -50 50 -50 40 0 50 10 50 50 0 40 -10 50 -50 50 -40 0 -50 -10 -50 -50z"/> <path d="M5820 950 c0 -40 -10 -50 -50 -50 -42 0 -50 -9 -50 -60 0 -51 8 -60 50 -60 40 0 50 -10 50 -50 0 -42 9 -50 60 -50 51 0 60 8 60 50 0 31 11 50 30 50 20 0 30 20 30 60 0 40 -10 60 -30 60 -19 0 -30 19 -30 50 0 42 -9 50 -60 50 -51 0 -60 -8 -60 -50z m120 -110 c0 -53 -7 -60 -60 -60 -53 0 -60 7 -60 60 0 53 7 60 60 60 53 0 60 -7 60 -60z"/> <path d="M13 887 c-36 -37 -12 -107 37 -107 42 0 50 9 50 60 0 58 -49 84 -87 47z"/> <path d="M228 871 c-20 -51 8 -94 57 -87 64 9 64 103 0 112 -27 4 -50 -6 -57 -25z"/> <path d="M920 840 c0 -51 8 -60 50 -60 40 0 50 -10 50 -50 0 -42 9 -50 60 -50 51 0 60 8 60 50 0 42 -9 50 -60 50 -53 0 -60 7 -60 60 0 51 -8 60 -50 60 -42 0 -50 -9 -50 -60z"/> <path d="M5028 871 c-20 -51 8 -94 57 -87 33 4 45 19 45 56 0 59 -82 84 -102 31z"/> <path d="M4800 831 c0 -38 -12 -50 -55 -55 -85 -9 -91 -96 -6 -96 52 0 61 8 61 50 0 40 10 50 50 50 40 0 50 10 50 50 0 40 -10 50 -50 50 -40 0 -50 -10 -50 -49z"/> <path d="M120 730 c0 -40 10 -50 50 -50 40 0 50 10 50 50 0 40 -10 50 -50 50 -40 0 -50 -10 -50 -50z"/> <path d="M340 730 c0 -40 10 -50 50 -50 40 0 50 10 50 50 0 40 -10 50 -50 50 -40 0 -50 -10 -50 -50z"/> <path d="M800 730 c0 -40 10 -50 50 -50 40 0 50 10 50 50 0 40 -10 50 -50 50 -40 0 -50 -10 -50 -50z"/> <path d="M1260 728 c0 -38 11 -48 50 -48 28 0 50 9 50 20 0 11 -10 20 -21 20 -12 0 -16 8 -10 18 6 9 -7 22 -29 28 -32 8 -40 0 -40 -38z"/> <path d="M4920 730 c0 -40 10 -50 50 -50 40 0 50 10 50 50 0 40 -10 50 -50 50 -40 0 -50 -10 -50 -50z"/> <path d="M5140 730 c0 -40 10 -50 50 -50 40 0 50 10 50 50 0 40 -10 50 -50 50 -40 0 -50 -10 -50 -50z"/> <path d="M5600 730 c0 -40 10 -50 50 -50 40 0 50 10 50 50 0 40 -10 50 -50 50 -40 0 -50 -10 -50 -50z"/> <path d="M0 610 c0 -40 10 -50 50 -50 40 0 50 10 50 50 0 40 -10 50 -50 50 -40 0 -50 -10 -50 -50z"/> <path d="M220 610 c0 -40 -10 -50 -50 -50 -42 0 -50 -9 -50 -60 0 -50 8 -60 49 -60 38 0 50 -12 55 -55 9 -80 103 -80 112 0 5 43 17 55 55 55 41 0 49 10 49 60 0 51 -8 60 -50 60 -40 0 -50 10 -50 50 0 42 -9 50 -60 50 -51 0 -60 -8 -60 -50z m120 -110 c0 -53 -7 -60 -60 -60 -53 0 -60 7 -60 60 0 53 7 60 60 60 53 0 60 -7 60 -60z"/> <path d="M460 610 c0 -40 10 -50 50 -50 40 0 50 10 50 50 0 40 -10 50 -50 50 -40 0 -50 -10 -50 -50z"/> <path d="M680 610 c0 -42 9 -50 60 -50 53 0 60 -7 60 -60 0 -51 8 -60 50 -60 42 0 50 9 50 60 0 51 -8 60 -50 60 -40 0 -50 10 -50 50 0 42 -9 50 -60 50 -51 0 -60 -8 -60 -50z"/> <path d="M920 610 c0 -40 10 -50 50 -50 40 0 50 10 50 50 0 40 -10 50 -50 50 -40 0 -50 -10 -50 -50z"/> <path d="M1140 610 c0 -40 10 -50 50 -50 40 0 50 10 50 50 0 40 -10 50 -50 50 -40 0 -50 -10 -50 -50z"/> <path d="M1374 648 c-8 -8 -14 -31 -14 -51 0 -26 -15 -37 -50 -37 -42 0 -50 -9 -50 -60 0 -51 8 -60 50 -60 42 0 50 9 50 60 0 53 7 60 60 60 87 0 91 -114 5 -124 -77 -9 -82 -106 -5 -106 40 0 51 11 56 55 5 43 17 55 56 55 79 0 85 102 7 113 -10 1 -27 3 -38 5 -10 1 -21 22 -25 47 -6 44 -72 72 -102 43z"/> <path d="M4380 616 l-49 -46 46 -7 c58 -8 68 2 60 57 l-7 43 -50 -47z"/> <path d="M4573 647 c-7 -8 -13 -30 -13 -50 0 -26 -15 -37 -50 -37 -42 0 -50 -9 -50 -60 0 -51 8 -60 50 -60 42 0 50 9 50 60 0 53 7 60 60 60 87 0 91 -114 5 -124 -44 -5 -55 -16 -55 -56 0 -76 97 -72 106 4 5 41 19 55 60 60 79 9 78 103 -1 112 -43 5 -55 17 -55 55 0 48 -71 72 -107 36z"/> <path d="M4800 610 c0 -40 10 -50 50 -50 40 0 50 10 50 50 0 40 -10 50 -50 50 -40 0 -50 -10 -50 -50z"/> <path d="M5020 610 c0 -40 -10 -50 -50 -50 -42 0 -50 -9 -50 -60 0 -50 8 -60 49 -60 38 0 50 -12 55 -55 5 -44 16 -55 56 -55 40 0 51 11 56 55 5 43 17 55 55 55 41 0 49 10 49 60 0 51 -8 60 -50 60 -40 0 -50 10 -50 50 0 42 -9 50 -60 50 -51 0 -60 -8 -60 -50z m120 -110 c0 -53 -7 -60 -60 -60 -53 0 -60 7 -60 60 0 53 7 60 60 60 53 0 60 -7 60 -60z"/> <path d="M5260 610 c0 -40 10 -50 50 -50 40 0 50 10 50 50 0 40 -10 50 -50 50 -40 0 -50 -10 -50 -50z"/> <path d="M5480 610 c0 -42 9 -50 60 -50 53 0 60 -7 60 -60 0 -51 8 -60 50 -60 42 0 50 9 50 60 0 51 -8 60 -50 60 -40 0 -50 10 -50 50 0 42 -9 50 -60 50 -51 0 -60 -8 -60 -50z"/> <path d="M5720 610 c0 -40 10 -50 50 -50 40 0 50 10 50 50 0 40 -10 50 -50 50 -40 0 -50 -10 -50 -50z"/> <path d="M5940 610 c0 -31 11 -50 30 -50 19 0 30 19 30 50 0 31 -11 50 -30 50 -19 0 -30 -19 -30 -50z"/> <path d="M568 531 c-20 -50 7 -91 60 -91 39 0 51 -12 56 -55 5 -44 16 -55 56 -55 76 0 72 97 -4 106 -41 5 -55 19 -60 60 -7 63 -88 89 -108 35z"/> <path d="M1034 548 c-8 -8 -14 -36 -14 -61 0 -37 -11 -47 -50 -47 -42 0 -50 -9 -50 -60 0 -51 8 -60 50 -60 40 0 50 -10 50 -50 0 -42 9 -50 60 -50 51 0 60 8 60 50 0 42 -9 50 -60 50 -53 0 -60 7 -60 60 0 87 114 91 124 5 9 -85 96 -91 96 -6 0 51 -8 61 -49 61 -38 0 -50 12 -55 55 -6 54 -68 86 -102 53z"/> <path d="M5368 531 c-20 -50 7 -91 60 -91 39 0 51 -12 56 -55 5 -44 16 -55 56 -55 76 0 72 97 -4 106 -41 5 -55 19 -60 60 -7 63 -88 89 -108 35z"/> <path d="M5834 548 c-8 -8 -14 -36 -14 -61 0 -37 -11 -47 -50 -47 -42 0 -50 -9 -50 -60 0 -51 8 -60 50 -60 40 0 50 -10 50 -50 0 -42 9 -50 60 -50 51 0 60 8 60 50 0 31 11 50 30 50 20 0 30 20 30 60 0 39 -10 60 -29 60 -16 0 -31 24 -35 55 -6 54 -68 86 -102 53z m106 -168 c0 -53 -7 -60 -60 -60 -53 0 -60 7 -60 60 0 53 7 60 60 60 53 0 60 -7 60 -60z"/> <path d="M1720 490 c0 -40 10 -50 50 -50 28 0 50 8 50 18 0 9 -22 32 -50 50 -49 32 -50 32 -50 -18z"/> <path d="M4232 490 c-9 -37 -26 -50 -62 -50 -42 0 -50 -9 -50 -61 0 -85 87 -79 96 6 6 46 16 55 64 55 48 0 58 -9 64 -55 9 -85 96 -91 96 -6 0 52 -8 61 -50 61 -40 0 -50 10 -50 50 0 39 -10 50 -48 50 -34 0 -51 -14 -60 -50z"/> <path d="M0 392 c0 -43 33 -72 82 -72 10 0 18 27 18 60 0 51 -8 60 -50 60 -39 0 -50 -10 -50 -48z"/> <path d="M460 380 c0 -51 8 -60 50 -60 46 0 62 -26 52 -85 -1 -8 25 -15 58 -15 51 0 60 8 60 50 0 42 -9 50 -60 50 -53 0 -60 7 -60 60 0 51 -8 60 -50 60 -42 0 -50 -9 -50 -60z"/> <path d="M1600 380 c0 -53 -7 -60 -60 -60 -51 0 -60 -8 -60 -50 0 -42 9 -50 60 -50 51 0 60 8 60 50 0 40 10 50 50 50 42 0 50 9 50 60 0 51 -8 60 -50 60 -42 0 -50 -9 -50 -60z"/> <path d="M1827 410 c-19 -50 9 -93 56 -86 56 8 67 43 26 84 -40 40 -67 41 -82 2z"/> <path d="M4800 380 c0 -53 -7 -60 -60 -60 -51 0 -60 -8 -60 -50 0 -42 9 -50 60 -50 51 0 60 8 60 50 0 40 10 50 50 50 42 0 50 9 50 60 0 51 -8 60 -50 60 -42 0 -50 -9 -50 -60z"/> <path d="M5260 380 c0 -51 8 -60 50 -60 46 0 62 -26 52 -85 -1 -8 25 -15 58 -15 51 0 60 8 60 50 0 42 -9 50 -60 50 -53 0 -60 7 -60 60 0 51 -8 60 -50 60 -42 0 -50 -9 -50 -60z"/> <path d="M3909 371 c-37 -28 -37 -30 16 -30 36 -1 55 9 55 29 0 38 -22 38 -71 1z"/> <path d="M120 270 c0 -40 10 -50 50 -50 40 0 50 10 50 50 0 40 -10 50 -50 50 -40 0 -50 -10 -50 -50z"/> <path d="M340 270 c0 -40 10 -50 50 -50 40 0 50 10 50 50 0 40 -10 50 -50 50 -40 0 -50 -10 -50 -50z"/> <path d="M800 270 c0 -40 10 -50 50 -50 40 0 50 10 50 50 0 40 -10 50 -50 50 -40 0 -50 -10 -50 -50z"/> <path d="M1260 270 c0 -40 10 -50 50 -50 40 0 50 10 50 50 0 40 -10 50 -50 50 -40 0 -50 -10 -50 -50z"/> <path d="M1720 270 c0 -40 10 -50 50 -50 40 0 50 10 50 50 0 40 -10 50 -50 50 -40 0 -50 -10 -50 -50z"/> <path d="M1940 270 c0 -40 10 -50 50 -50 40 0 50 10 50 50 0 40 -10 50 -50 50 -40 0 -50 -10 -50 -50z"/> <path d="M2180 268 c0 -37 11 -48 48 -48 59 0 51 70 -10 86 -30 8 -38 0 -38 -38z"/> <path d="M3780 270 c0 -40 10 -50 50 -50 40 0 50 10 50 50 0 40 -10 50 -50 50 -40 0 -50 -10 -50 -50z"/> <path d="M4000 270 c0 -40 10 -50 50 -50 40 0 50 10 50 50 0 40 -10 50 -50 50 -40 0 -50 -10 -50 -50z"/> <path d="M4220 270 c0 -42 9 -50 60 -50 51 0 60 8 60 50 0 42 -9 50 -60 50 -51 0 -60 -8 -60 -50z"/> <path d="M4460 270 c0 -40 10 -50 50 -50 40 0 50 10 50 50 0 40 -10 50 -50 50 -40 0 -50 -10 -50 -50z"/> <path d="M4920 270 c0 -40 10 -50 50 -50 40 0 50 10 50 50 0 40 -10 50 -50 50 -40 0 -50 -10 -50 -50z"/> <path d="M5140 270 c0 -40 10 -50 50 -50 40 0 50 10 50 50 0 40 -10 50 -50 50 -40 0 -50 -10 -50 -50z"/> <path d="M5600 270 c0 -40 10 -50 50 -50 40 0 50 10 50 50 0 40 -10 50 -50 50 -40 0 -50 -10 -50 -50z"/> <path d="M0 150 c0 -40 10 -50 50 -50 40 0 50 10 50 50 0 40 -10 50 -50 50 -40 0 -50 -10 -50 -50z"/> <path d="M220 150 c0 -40 -10 -50 -50 -50 -40 0 -50 -10 -50 -50 0 -40 10 -50 50 -50 40 0 50 10 50 50 0 42 9 50 60 50 51 0 60 -8 60 -50 0 -40 10 -50 50 -50 40 0 50 10 50 51 0 42 -8 50 -45 45 -36 -5 -46 5 -51 49 -9 78 -124 83 -124 5z"/> <path d="M460 150 c0 -40 10 -50 50 -50 40 0 50 10 50 50 0 40 -10 50 -50 50 -40 0 -50 -10 -50 -50z"/> <path d="M680 150 c0 -40 -10 -50 -49 -50 -56 0 -76 -23 -59 -68 21 -55 108 -41 108 18 0 39 10 50 48 50 43 0 72 33 72 82 0 10 -27 18 -60 18 -51 0 -60 -8 -60 -50z"/> <path d="M920 150 c0 -40 10 -50 50 -50 40 0 50 10 50 50 0 40 -10 50 -50 50 -40 0 -50 -10 -50 -50z"/> <path d="M1140 150 c0 -27 -11 -51 -25 -52 -14 -2 -38 -4 -55 -5 -65 -6 -48 -93 19 -93 52 0 61 8 61 50 0 40 10 50 50 50 40 0 50 10 50 50 0 40 -10 50 -50 50 -40 0 -50 -10 -50 -50z"/> <path d="M1364 155 c4 -32 22 -47 61 -51 43 -5 55 -17 55 -55 0 -41 10 -49 61 -49 85 0 79 87 -6 96 -43 5 -55 17 -55 55 0 41 -10 49 -61 49 -53 0 -61 -7 -55 -45z"/> <path d="M1600 150 c0 -40 10 -50 50 -50 40 0 50 10 50 50 0 40 -10 50 -50 50 -40 0 -50 -10 -50 -50z"/> <path d="M1820 150 c0 -40 -10 -50 -50 -50 -40 0 -50 -10 -50 -50 0 -40 10 -50 50 -50 40 0 50 10 50 50 0 42 9 50 60 50 51 0 60 -8 60 -50 0 -40 10 -50 50 -50 40 0 50 10 50 51 0 42 -8 50 -45 45 -36 -5 -46 5 -51 49 -9 78 -124 83 -124 5z"/> <path d="M2060 150 c0 -40 10 -50 50 -50 40 0 50 10 50 50 0 40 -10 50 -50 50 -40 0 -50 -10 -50 -50z"/> <path d="M2280 150 c0 -40 -10 -50 -49 -50 -56 0 -76 -23 -59 -68 21 -55 108 -41 108 18 0 40 10 50 50 50 40 0 50 10 50 50 0 40 -10 50 -50 50 -40 0 -50 -10 -50 -50z"/> <path d="M3453 187 c-29 -30 -12 -87 26 -87 47 0 65 26 49 68 -13 33 -51 42 -75 19z"/> <path d="M3660 150 c0 -40 10 -50 50 -50 40 0 50 10 50 50 0 40 -10 50 -50 50 -40 0 -50 -10 -50 -50z"/> <path d="M3880 150 c0 -40 -10 -50 -49 -50 -56 0 -76 -23 -59 -68 21 -55 108 -41 108 18 0 39 10 50 48 50 43 0 72 33 72 82 0 10 -27 18 -60 18 -51 0 -60 -8 -60 -50z"/> <path d="M4120 150 c0 -40 10 -50 50 -50 40 0 50 10 50 50 0 40 -10 50 -50 50 -40 0 -50 -10 -50 -50z"/> <path d="M4340 150 c0 -27 -11 -51 -25 -52 -14 -2 -38 -4 -55 -5 -65 -6 -48 -93 19 -93 52 0 61 8 61 50 0 40 10 50 50 50 40 0 50 10 50 50 0 40 -10 50 -50 50 -40 0 -50 -10 -50 -50z"/> <path d="M4564 155 c4 -32 22 -47 61 -51 43 -5 55 -17 55 -55 0 -41 10 -49 61 -49 85 0 79 87 -6 96 -43 5 -55 17 -55 55 0 41 -10 49 -61 49 -53 0 -61 -7 -55 -45z"/> <path d="M4800 150 c0 -40 10 -50 50 -50 40 0 50 10 50 50 0 40 -10 50 -50 50 -40 0 -50 -10 -50 -50z"/> <path d="M5020 150 c0 -40 -10 -50 -50 -50 -40 0 -50 -10 -50 -50 0 -40 10 -50 50 -50 40 0 50 10 50 50 0 42 9 50 60 50 51 0 60 -8 60 -50 0 -40 10 -50 50 -50 40 0 50 10 50 51 0 42 -8 50 -45 45 -36 -5 -46 5 -51 49 -9 78 -124 83 -124 5z"/> <path d="M5260 150 c0 -40 10 -50 50 -50 40 0 50 10 50 50 0 40 -10 50 -50 50 -40 0 -50 -10 -50 -50z"/> <path d="M5480 150 c0 -40 -10 -50 -49 -50 -56 0 -76 -23 -59 -68 21 -55 108 -41 108 18 0 39 10 50 48 50 43 0 72 33 72 82 0 10 -27 18 -60 18 -51 0 -60 -8 -60 -50z"/> <path d="M5720 150 c0 -40 10 -50 50 -50 40 0 50 10 50 50 0 40 -10 50 -50 50 -40 0 -50 -10 -50 -50z"/> <path d="M5940 150 c0 -27 -11 -51 -25 -52 -14 -2 -38 -4 -55 -5 -65 -6 -48 -93 19 -93 52 0 61 8 61 50 0 31 11 50 30 50 19 0 30 19 30 50 0 31 -11 50 -30 50 -19 0 -30 -19 -30 -50z"/> <path d="M2520 140 c0 -29 13 -40 50 -40 60 0 65 30 11 59 -53 29 -61 27 -61 -19z"/> <path d="M800 50 c0 -40 10 -50 50 -50 40 0 50 10 50 50 0 40 -10 50 -50 50 -40 0 -50 -10 -50 -50z"/> <path d="M1260 50 c0 -40 10 -50 50 -50 40 0 50 10 50 50 0 40 -10 50 -50 50 -40 0 -50 -10 -50 -50z"/> <path d="M2400 50 c0 -40 10 -50 50 -50 40 0 50 10 50 50 0 40 -10 50 -50 50 -40 0 -50 -10 -50 -50z"/> <path d="M3345 85 c-49 -17 -29 -85 25 -85 36 0 50 11 50 38 0 40 -34 62 -75 47z"/> <path d="M3540 46 c0 -36 11 -46 50 -46 40 0 50 10 50 50 0 41 -9 49 -50 45 -38 -3 -50 -15 -50 -49z"/> <path d="M4000 50 c0 -40 10 -50 50 -50 40 0 50 10 50 50 0 40 -10 50 -50 50 -40 0 -50 -10 -50 -50z"/> <path d="M4460 50 c0 -40 10 -50 50 -50 40 0 50 10 50 50 0 40 -10 50 -50 50 -40 0 -50 -10 -50 -50z"/> <path d="M5600 50 c0 -40 10 -50 50 -50 40 0 50 10 50 50 0 40 -10 50 -50 50 -40 0 -50 -10 -50 -50z"/> <path d="M2620 40 c0 -31 13 -40 58 -40 48 0 56 7 48 40 -15 56 -106 56 -106 0z"/> <path d="M3111 49 c-42 -43 -39 -49 19 -49 37 0 50 11 50 40 0 48 -26 51 -69 9z"/> </g> </svg> 